<?xml version="1.0" encoding="UTF-8"?><svg xmlns="http://www.w3.org/2000/svg" xmlns:xlink="http://www.w3.org/1999/xlink" fill-opacity="1" color-rendering="auto" color-interpolation="auto" text-rendering="auto" stroke="black" stroke-linecap="square" width="938" stroke-miterlimit="10" shape-rendering="auto" stroke-opacity="1" fill="black" stroke-dasharray="none" font-weight="normal" stroke-width="1" height="327" font-family="'Dialog'" font-style="normal" stroke-linejoin="miter" font-size="12px" stroke-dashoffset="0" image-rendering="auto">
  <!--Generated by ySVG 2.5-->
  <defs id="genericDefs"/>
  <g>
    <defs id="defs1">
      <clipPath clipPathUnits="userSpaceOnUse" id="clipPath1">
        <path d="M0 0 L938 0 L938 327 L0 327 L0 0 Z"/>
      </clipPath>
      <clipPath clipPathUnits="userSpaceOnUse" id="clipPath2">
        <path d="M207 105 L1145 105 L1145 432 L207 432 L207 105 Z"/>
      </clipPath>
    </defs>
    <g fill="white" text-rendering="geometricPrecision" shape-rendering="geometricPrecision" transform="translate(-207,-105)" stroke="white">
      <rect x="207" width="938" height="327" y="105" clip-path="url(#clipPath2)" stroke="none"/>
    </g>
    <g fill="rgb(204,255,204)" text-rendering="geometricPrecision" shape-rendering="geometricPrecision" transform="matrix(1,0,0,1,-207,-105)" stroke="rgb(204,255,204)">
      <rect x="257.6719" y="155.5176" clip-path="url(#clipPath2)" width="692.3281" rx="4" ry="4" height="113.0233" stroke="none"/>
    </g>
    <g font-size="16px" stroke-linecap="butt" transform="matrix(1,0,0,1,-207,-105)" text-rendering="geometricPrecision" font-family="'DejaVu Serif'" shape-rendering="geometricPrecision" stroke-miterlimit="1.45">
      <text x="458.7891" xml:space="preserve" y="176.3692" clip-path="url(#clipPath2)" stroke="none">Componentes del sistema operativo</text>
      <rect x="257.6719" y="155.5176" clip-path="url(#clipPath2)" fill="none" width="692.3281" rx="4" ry="4" height="113.0233"/>
      <text x="288.6836" xml:space="preserve" font-size="14px" y="202.7712" clip-path="url(#clipPath2)" stroke="none">Examen sobre:</text>
      <text x="288.6836" xml:space="preserve" font-size="14px" y="219.0681" clip-path="url(#clipPath2)" stroke="none">- Representación de la información</text>
      <text x="288.6836" xml:space="preserve" font-size="14px" y="235.365" clip-path="url(#clipPath2)" stroke="none">- Velocidad de transferencia.</text>
      <text x="288.6836" xml:space="preserve" font-size="14px" y="251.6619" clip-path="url(#clipPath2)" stroke="none">- Planificación del procesador</text>
    </g>
    <g transform="matrix(1,0,0,1,-207,-105)" fill-opacity="0.1451" fill="rgb(255,0,0)" text-rendering="geometricPrecision" shape-rendering="geometricPrecision" stroke="rgb(255,0,0)" stroke-opacity="0.1451">
      <rect x="964.6658" y="155.5176" clip-path="url(#clipPath2)" width="77.2373" rx="4" ry="4" height="43.3145" stroke="none"/>
    </g>
    <g stroke-linecap="butt" transform="matrix(1,0,0,1,-207,-105)" fill="red" text-rendering="geometricPrecision" shape-rendering="geometricPrecision" stroke="red" stroke-miterlimit="1.45">
      <rect x="964.6658" y="155.5176" clip-path="url(#clipPath2)" fill="none" width="77.2373" rx="4" ry="4" height="43.3145"/>
      <text x="976.97" y="181.3292" clip-path="url(#clipPath2)" fill="black" font-family="sans-serif" stroke="none" xml:space="preserve">RA1 (20)</text>
    </g>
    <g transform="matrix(1,0,0,1,-207,-105)" fill-opacity="0.1451" fill="rgb(255,0,0)" text-rendering="geometricPrecision" shape-rendering="geometricPrecision" stroke="rgb(255,0,0)" stroke-opacity="0.1451">
      <rect x="1048.9031" y="155.5176" clip-path="url(#clipPath2)" width="45.5715" rx="4" ry="4" height="43.3145" stroke="none"/>
    </g>
    <g stroke-linecap="butt" transform="matrix(1,0,0,1,-207,-105)" fill="red" text-rendering="geometricPrecision" shape-rendering="geometricPrecision" stroke="red" stroke-miterlimit="1.45">
      <rect x="1048.9031" y="155.5176" clip-path="url(#clipPath2)" fill="none" width="45.5715" rx="4" ry="4" height="43.3145"/>
      <text x="1064.0541" y="181.3292" clip-path="url(#clipPath2)" fill="black" font-family="sans-serif" stroke="none" xml:space="preserve">20</text>
    </g>
    <g fill="rgb(204,255,204)" text-rendering="geometricPrecision" shape-rendering="geometricPrecision" transform="matrix(1,0,0,1,-207,-105)" stroke="rgb(204,255,204)">
      <rect x="257.6719" y="277.8598" clip-path="url(#clipPath2)" width="692.3281" rx="4" ry="4" height="104.0233" stroke="none"/>
    </g>
    <g font-size="16px" stroke-linecap="butt" transform="matrix(1,0,0,1,-207,-105)" text-rendering="geometricPrecision" font-family="'DejaVu Serif'" shape-rendering="geometricPrecision" stroke-miterlimit="1.45">
      <text x="515.0898" xml:space="preserve" y="298.7114" clip-path="url(#clipPath2)" stroke="none">Memoria de practicas</text>
      <rect x="257.6719" y="277.8598" clip-path="url(#clipPath2)" fill="none" width="692.3281" rx="4" ry="4" height="104.0233"/>
      <text x="287.8689" xml:space="preserve" font-size="14px" y="323.748" clip-path="url(#clipPath2)" stroke="none">Registro en ExeLearning de la instalación de sistemas operativos</text>
      <text x="287.8689" xml:space="preserve" font-size="14px" y="340.0449" clip-path="url(#clipPath2)" stroke="none">Manual de uso de VirtualBox y VMWare Player</text>
      <text x="287.8689" xml:space="preserve" font-size="14px" y="356.3418" clip-path="url(#clipPath2)" stroke="none">Investigación sobre 3 minilinux</text>
    </g>
    <g transform="matrix(1,0,0,1,-207,-105)" fill-opacity="0.1451" fill="rgb(255,0,0)" text-rendering="geometricPrecision" shape-rendering="geometricPrecision" stroke="rgb(255,0,0)" stroke-opacity="0.1451">
      <rect x="964.6658" y="277.8598" clip-path="url(#clipPath2)" width="77.2373" rx="4" ry="4" height="43.3145" stroke="none"/>
    </g>
    <g stroke-linecap="butt" transform="matrix(1,0,0,1,-207,-105)" fill="red" text-rendering="geometricPrecision" shape-rendering="geometricPrecision" stroke="red" stroke-miterlimit="1.45">
      <rect x="964.6658" y="277.8598" clip-path="url(#clipPath2)" fill="none" width="77.2373" rx="4" ry="4" height="43.3145"/>
      <text x="976.97" y="303.6714" clip-path="url(#clipPath2)" fill="black" font-family="sans-serif" stroke="none" xml:space="preserve">RA2 (15)</text>
    </g>
    <g transform="matrix(1,0,0,1,-207,-105)" fill-opacity="0.1451" fill="rgb(255,0,0)" text-rendering="geometricPrecision" shape-rendering="geometricPrecision" stroke="rgb(255,0,0)" stroke-opacity="0.1451">
      <rect x="1048.9031" y="277.8598" clip-path="url(#clipPath2)" width="45.5715" rx="4" ry="4" height="43.3145" stroke="none"/>
    </g>
    <g stroke-linecap="butt" transform="matrix(1,0,0,1,-207,-105)" fill="red" text-rendering="geometricPrecision" shape-rendering="geometricPrecision" stroke="red" stroke-miterlimit="1.45">
      <rect x="1048.9031" y="277.8598" clip-path="url(#clipPath2)" fill="none" width="45.5715" rx="4" ry="4" height="43.3145"/>
      <text x="1064.0541" y="303.6714" clip-path="url(#clipPath2)" fill="black" font-family="sans-serif" stroke="none" xml:space="preserve">15</text>
    </g>
    <g transform="matrix(1,0,0,1,-207,-105)" fill-opacity="0.1451" fill="rgb(255,0,0)" text-rendering="geometricPrecision" shape-rendering="geometricPrecision" stroke="rgb(255,0,0)" stroke-opacity="0.1451">
      <rect x="964.6658" y="323.0548" clip-path="url(#clipPath2)" width="77.2373" rx="4" ry="4" height="43.3145" stroke="none"/>
    </g>
    <g stroke-linecap="butt" transform="matrix(1,0,0,1,-207,-105)" fill="red" text-rendering="geometricPrecision" shape-rendering="geometricPrecision" stroke="red" stroke-miterlimit="1.45">
      <rect x="964.6658" y="323.0548" clip-path="url(#clipPath2)" fill="none" width="77.2373" rx="4" ry="4" height="43.3145"/>
      <text x="980.7874" y="348.8663" clip-path="url(#clipPath2)" fill="black" font-family="sans-serif" stroke="none" xml:space="preserve">RA5 (5)</text>
    </g>
    <g transform="matrix(1,0,0,1,-207,-105)" fill-opacity="0.1451" fill="rgb(255,0,0)" text-rendering="geometricPrecision" shape-rendering="geometricPrecision" stroke="rgb(255,0,0)" stroke-opacity="0.1451">
      <rect x="1048.9031" y="323.0548" clip-path="url(#clipPath2)" width="45.5715" rx="4" ry="4" height="43.3145" stroke="none"/>
    </g>
    <g stroke-linecap="butt" transform="matrix(1,0,0,1,-207,-105)" fill="red" text-rendering="geometricPrecision" shape-rendering="geometricPrecision" stroke="red" stroke-miterlimit="1.45">
      <rect x="1048.9031" y="323.0548" clip-path="url(#clipPath2)" fill="none" width="45.5715" rx="4" ry="4" height="43.3145"/>
      <text x="1067.8715" y="348.8663" clip-path="url(#clipPath2)" fill="black" font-family="sans-serif" stroke="none" xml:space="preserve">5</text>
    </g>
  </g>
</svg>
