<?xml version="1.0" encoding="UTF-8"?><svg xmlns="http://www.w3.org/2000/svg" xmlns:xlink="http://www.w3.org/1999/xlink" fill-opacity="1" color-rendering="auto" color-interpolation="auto" text-rendering="auto" stroke="black" stroke-linecap="square" width="715" stroke-miterlimit="10" shape-rendering="auto" stroke-opacity="1" fill="black" stroke-dasharray="none" font-weight="normal" stroke-width="1" height="289" font-family="'Dialog'" font-style="normal" stroke-linejoin="miter" font-size="12px" stroke-dashoffset="0" image-rendering="auto">
  <!--Generated by ySVG 2.5-->
  <defs id="genericDefs"/>
  <g>
    <defs id="defs1">
      <clipPath clipPathUnits="userSpaceOnUse" id="clipPath1">
        <path d="M0 0 L715 0 L715 289 L0 289 L0 0 Z"/>
      </clipPath>
      <clipPath clipPathUnits="userSpaceOnUse" id="clipPath2">
        <path d="M358 61 L1073 61 L1073 350 L358 350 L358 61 Z"/>
      </clipPath>
    </defs>
    <g fill="white" text-rendering="geometricPrecision" shape-rendering="geometricPrecision" transform="translate(-358,-61)" stroke="white">
      <rect x="358" width="715" height="289" y="61" clip-path="url(#clipPath2)" stroke="none"/>
    </g>
    <g id="y.node.0">
      <g fill="white" text-rendering="geometricPrecision" shape-rendering="geometricPrecision" transform="matrix(1,0,0,1,-358,-61)" stroke="white">
        <rect x="444.9277" y="111.6478" width="577.1445" rx="4" ry="4" height="47.7045" stroke="none"/>
      </g>
      <g>
        <g text-rendering="geometricPrecision" stroke-miterlimit="1.45" shape-rendering="geometricPrecision" font-family="'DejaVu Serif'" transform="matrix(1,0,0,1,-358,-61)" stroke-linecap="butt">
          <text x="450.9277" xml:space="preserve" y="132.6699" stroke="none">Convierte a binario los siguientes números: 1,2,4,8,16,32,5,9,17,33,3,7,15,31. </text>
        </g>
        <g text-rendering="geometricPrecision" stroke-miterlimit="1.45" shape-rendering="geometricPrecision" font-family="'DejaVu Serif'" transform="matrix(1,0,0,1,-358,-61)" stroke-linecap="butt">
          <text x="450.9277" xml:space="preserve" y="146.6387" stroke="none">Una vez convertidos a binario comparalos ¿encuentras alguna curiosidad?</text>
        </g>
      </g>
      <g stroke-linecap="butt" transform="matrix(1,0,0,1,-358,-61)" fill="gray" text-rendering="geometricPrecision" shape-rendering="geometricPrecision" stroke="gray" stroke-width="2" stroke-miterlimit="1.45">
        <rect x="444.9277" y="111.6478" fill="none" width="577.1445" rx="4" ry="4" height="47.7045"/>
      </g>
    </g>
    <g id="y.node.1">
      <a xlink:href="100-Programas.html">
        <g fill="rgb(255,204,0)" text-rendering="geometricPrecision" shape-rendering="geometricPrecision" transform="matrix(1,0,0,1,-358,-61)" stroke="rgb(255,204,0)">
          <ellipse rx="12.7243" ry="12.1781" cx="421.2907" cy="123.8259" stroke="none"/>
        </g>
        <g>
          <g font-size="14px" stroke-linecap="butt" transform="matrix(1,0,0,1,-358,-61)" text-rendering="geometricPrecision" font-family="'DejaVu Serif'" shape-rendering="geometricPrecision" stroke-miterlimit="1.45">
            <text x="416.837" xml:space="preserve" y="128.6725" stroke="none">1</text>
          </g>
        </g>
      </a>
    </g>
    <g id="y.node.2">
      <g fill="white" text-rendering="geometricPrecision" shape-rendering="geometricPrecision" transform="matrix(1,0,0,1,-358,-61)" stroke="white">
        <rect x="444.9277" y="166.0039" width="577.1445" rx="4" ry="4" height="24.3562" stroke="none"/>
      </g>
      <g>
        <g text-rendering="geometricPrecision" stroke-miterlimit="1.45" shape-rendering="geometricPrecision" font-family="'DejaVu Serif'" transform="matrix(1,0,0,1,-358,-61)" stroke-linecap="butt">
          <text x="450.9277" xml:space="preserve" y="182.3363" stroke="none">Convierte a binario los siguientes números: 192,224,240,248,255</text>
        </g>
      </g>
      <g stroke-linecap="butt" transform="matrix(1,0,0,1,-358,-61)" fill="gray" text-rendering="geometricPrecision" shape-rendering="geometricPrecision" stroke="gray" stroke-width="2" stroke-miterlimit="1.45">
        <rect x="444.9277" y="166.0039" fill="none" width="577.1445" rx="4" ry="4" height="24.3562"/>
      </g>
    </g>
    <g id="y.node.3">
      <a xlink:href="100-Programas.html">
        <g fill="rgb(255,204,0)" text-rendering="geometricPrecision" shape-rendering="geometricPrecision" transform="matrix(1,0,0,1,-358,-61)" stroke="rgb(255,204,0)">
          <ellipse rx="11.4536" ry="12.1781" cx="421.2907" cy="178.182" stroke="none"/>
        </g>
        <g>
          <g font-size="14px" stroke-linecap="butt" transform="matrix(1,0,0,1,-358,-61)" text-rendering="geometricPrecision" font-family="'DejaVu Serif'" shape-rendering="geometricPrecision" stroke-miterlimit="1.45">
            <text x="416.837" xml:space="preserve" y="183.0287" stroke="none">2</text>
          </g>
        </g>
      </a>
    </g>
    <g id="y.node.4">
      <g fill="white" text-rendering="geometricPrecision" shape-rendering="geometricPrecision" transform="matrix(1,0,0,1,-358,-61)" stroke="white">
        <rect x="444.9277" y="197.0118" width="577.1445" rx="4" ry="4" height="40.3562" stroke="none"/>
      </g>
      <g>
        <g text-rendering="geometricPrecision" stroke-miterlimit="1.45" shape-rendering="geometricPrecision" font-family="'DejaVu Serif'" transform="matrix(1,0,0,1,-358,-61)" stroke-linecap="butt">
          <text x="450.9277" xml:space="preserve" y="214.3598" stroke="none">Convierte a decimal los siguientes números: 1001010,10101,111,11110,1010101,1111,</text>
          <text x="450.9277" xml:space="preserve" y="228.3286" stroke="none">0101011,101,1100.</text>
        </g>
      </g>
      <g stroke-linecap="butt" transform="matrix(1,0,0,1,-358,-61)" fill="gray" text-rendering="geometricPrecision" shape-rendering="geometricPrecision" stroke="gray" stroke-width="2" stroke-miterlimit="1.45">
        <rect x="444.9277" y="197.0118" fill="none" width="577.1445" rx="4" ry="4" height="40.3562"/>
      </g>
    </g>
    <g id="y.node.5">
      <a xlink:href="100-Programas.html">
        <g fill="rgb(255,204,0)" text-rendering="geometricPrecision" shape-rendering="geometricPrecision" transform="matrix(1,0,0,1,-358,-61)" stroke="rgb(255,204,0)">
          <ellipse rx="11.4536" ry="12.1781" cx="421.2907" cy="209.1899" stroke="none"/>
        </g>
        <g>
          <g font-size="14px" stroke-linecap="butt" transform="matrix(1,0,0,1,-358,-61)" text-rendering="geometricPrecision" font-family="'DejaVu Serif'" shape-rendering="geometricPrecision" stroke-miterlimit="1.45">
            <text x="416.837" xml:space="preserve" y="214.0366" stroke="none">3</text>
          </g>
        </g>
      </a>
    </g>
    <g id="y.node.6">
      <g fill="white" text-rendering="geometricPrecision" shape-rendering="geometricPrecision" transform="matrix(1,0,0,1,-358,-61)" stroke="white">
        <rect x="444.9277" y="244.0197" width="577.1445" rx="4" ry="4" height="24.3562" stroke="none"/>
      </g>
      <g>
        <g text-rendering="geometricPrecision" stroke-miterlimit="1.45" shape-rendering="geometricPrecision" font-family="'DejaVu Serif'" transform="matrix(1,0,0,1,-358,-61)" stroke-linecap="butt">
          <text x="450.9277" xml:space="preserve" y="260.3521" stroke="none">Convierte a octal todos los numeros de los tres ejercicios anteriores.</text>
        </g>
      </g>
      <g stroke-linecap="butt" transform="matrix(1,0,0,1,-358,-61)" fill="gray" text-rendering="geometricPrecision" shape-rendering="geometricPrecision" stroke="gray" stroke-width="2" stroke-miterlimit="1.45">
        <rect x="444.9277" y="244.0197" fill="none" width="577.1445" rx="4" ry="4" height="24.3562"/>
      </g>
    </g>
    <g id="y.node.7">
      <a xlink:href="100-Programas.html">
        <g fill="rgb(255,204,0)" text-rendering="geometricPrecision" shape-rendering="geometricPrecision" transform="matrix(1,0,0,1,-358,-61)" stroke="rgb(255,204,0)">
          <ellipse rx="11.4536" ry="12.1781" cx="421.2907" cy="256.1978" stroke="none"/>
        </g>
        <g>
          <g font-size="14px" stroke-linecap="butt" transform="matrix(1,0,0,1,-358,-61)" text-rendering="geometricPrecision" font-family="'DejaVu Serif'" shape-rendering="geometricPrecision" stroke-miterlimit="1.45">
            <text x="416.837" xml:space="preserve" y="261.0445" stroke="none">4</text>
          </g>
        </g>
      </a>
    </g>
    <g id="y.node.8">
      <g fill="white" text-rendering="geometricPrecision" shape-rendering="geometricPrecision" transform="matrix(1,0,0,1,-358,-61)" stroke="white">
        <rect x="444.9277" y="275.0276" width="577.1445" rx="4" ry="4" height="24.3562" stroke="none"/>
      </g>
      <g>
        <g text-rendering="geometricPrecision" stroke-miterlimit="1.45" shape-rendering="geometricPrecision" font-family="'DejaVu Serif'" transform="matrix(1,0,0,1,-358,-61)" stroke-linecap="butt">
          <text x="450.9277" xml:space="preserve" y="291.36" stroke="none">Convierte a hexadecimal todos los numeros del ejercicio 4.</text>
        </g>
      </g>
      <g stroke-linecap="butt" transform="matrix(1,0,0,1,-358,-61)" fill="gray" text-rendering="geometricPrecision" shape-rendering="geometricPrecision" stroke="gray" stroke-width="2" stroke-miterlimit="1.45">
        <rect x="444.9277" y="275.0276" fill="none" width="577.1445" rx="4" ry="4" height="24.3562"/>
      </g>
    </g>
    <g id="y.node.9">
      <a xlink:href="100-Programas.html">
        <g fill="rgb(255,204,0)" text-rendering="geometricPrecision" shape-rendering="geometricPrecision" transform="matrix(1,0,0,1,-358,-61)" stroke="rgb(255,204,0)">
          <ellipse rx="11.4536" ry="12.1781" cx="421.2907" cy="287.2057" stroke="none"/>
        </g>
        <g>
          <g font-size="14px" stroke-linecap="butt" transform="matrix(1,0,0,1,-358,-61)" text-rendering="geometricPrecision" font-family="'DejaVu Serif'" shape-rendering="geometricPrecision" stroke-miterlimit="1.45">
            <text x="416.837" xml:space="preserve" y="292.0524" stroke="none">5</text>
          </g>
        </g>
      </a>
    </g>
  </g>
</svg>
